<svg width="35" height="35" viewBox="0 0 35 35" fill="none" xmlns="http://www.w3.org/2000/svg">
<rect width="35" height="35" rx="17.5" fill="#C0F6E7"/>
<path d="M20.4 17.8889H15.6M18 15.2222V20.5556M23.6 15.2222H22.8M10 18.2125C10 15.488 10 14.1263 10.5992 13.1485C10.8593 12.7233 11.1927 12.3595 11.58 12.0783C12.156 11.6578 12.8776 11.5076 13.9824 11.4543C14.5096 11.4543 14.9632 11.0187 15.0664 10.4543C15.1453 10.0408 15.3502 9.67029 15.6465 9.40533C15.9429 9.14037 16.3124 8.9972 16.6928 9.00004H19.3072C20.0976 9.00004 20.7784 9.60893 20.9336 10.4543C21.0368 11.0187 21.4904 11.4543 22.0176 11.4543C23.1216 11.5076 23.8432 11.6587 24.42 12.0783C24.808 12.3609 25.1416 12.7245 25.4008 13.1485C26 14.1263 26 15.488 26 18.2125C26 20.936 26 22.2978 25.4008 23.2764C25.1402 23.7012 24.807 24.0649 24.42 24.3467C23.5232 25 22.2744 25 19.7776 25H16.2224C13.7256 25 12.4768 25 11.58 24.3467C11.1932 24.0646 10.8602 23.7006 10.6 23.2756C10.4266 22.9877 10.2986 22.669 10.2216 22.3333" stroke="#23247E" stroke-width="1.5" stroke-linecap="round"/>
</svg>
