<svg width="35" height="35" viewBox="0 0 35 35" fill="none" xmlns="http://www.w3.org/2000/svg">
<path d="M0 17.5C0 7.83502 7.83502 0 17.5 0V0C27.165 0 35 7.83502 35 17.5V17.5C35 27.165 27.165 35 17.5 35V35C7.83502 35 0 27.165 0 17.5V17.5Z" fill="#C0F6E7"/>
<g clip-path="url(#clip0_375_27)">
<path d="M15.75 15.5C16.1478 15.5 16.5294 15.342 16.8107 15.0607C17.092 14.7794 17.25 14.3978 17.25 14C17.25 13.6022 17.092 13.2206 16.8107 12.9393C16.5294 12.658 16.1478 12.5 15.75 12.5C15.3522 12.5 14.9706 12.658 14.6893 12.9393C14.408 13.2206 14.25 13.6022 14.25 14C14.25 14.3978 14.408 14.7794 14.6893 15.0607C14.9706 15.342 15.3522 15.5 15.75 15.5Z" stroke="white" stroke-width="1.5" stroke-linecap="round" stroke-linejoin="round"/>
<path d="M18.75 9.5H15.75C12 9.5 10.5 11 10.5 14.75V19.25C10.5 23 12 24.5 15.75 24.5H20.25C24 24.5 25.5 23 25.5 19.25V15.5" stroke="#23247E" stroke-width="1.5" stroke-linecap="round" stroke-linejoin="round"/>
<path d="M22.4999 9.5V14M22.4999 14L23.9999 12.5M22.4999 14L20.9999 12.5M11.0024 22.2125L14.6999 19.73C15.2924 19.3325 16.1474 19.3775 16.6799 19.835L16.9274 20.0525C17.5124 20.555 18.4574 20.555 19.0424 20.0525L22.1624 17.375C22.7474 16.8725 23.6924 16.8725 24.2774 17.375L25.4999 18.425" stroke="#23247E" stroke-width="1.5" stroke-linecap="round" stroke-linejoin="round"/>
</g>
<defs>
<clipPath id="clip0_375_27">
<rect width="18" height="18" fill="white" transform="translate(9 8)"/>
</clipPath>
</defs>
</svg>
