<svg width="35" height="35" viewBox="0 0 35 35" fill="none" xmlns="http://www.w3.org/2000/svg">
<circle cx="17.5" cy="17.5" r="17.5" fill="#C0F6E7"/>
<path d="M17.0834 7.83325H15.25C10.6667 7.83325 8.83337 9.66659 8.83337 14.2499V19.7499C8.83337 24.3333 10.6667 26.1666 15.25 26.1666H20.75C25.3334 26.1666 27.1667 24.3333 27.1667 19.7499V17.9166" stroke="#263962" stroke-width="1.5" stroke-linecap="round" stroke-linejoin="round"/>
<path d="M21.7033 8.76832L14.48 15.9917C14.205 16.2667 13.93 16.8075 13.875 17.2017L13.4808 19.9608C13.3342 20.96 14.04 21.6567 15.0392 21.5192L17.7983 21.125C18.1833 21.07 18.7242 20.795 19.0083 20.52L26.2317 13.2967C27.4783 12.05 28.065 10.6017 26.2317 8.76832C24.3983 6.93499 22.95 7.52165 21.7033 8.76832Z" stroke="#263962" stroke-width="1.5" stroke-miterlimit="10" stroke-linecap="round" stroke-linejoin="round"/>
<path d="M20.6675 9.8042C20.9714 10.8835 21.5475 11.8668 22.3404 12.6597C23.1333 13.4526 24.1165 14.0286 25.1958 14.3325" stroke="#263962" stroke-width="1.5" stroke-miterlimit="10" stroke-linecap="round" stroke-linejoin="round"/>
</svg>
