<svg width="24" height="14" viewBox="0 0 24 14" fill="none" xmlns="http://www.w3.org/2000/svg">
<path d="M1.125 0H22.875C23.1734 0 23.4595 0.116447 23.6705 0.323724C23.8815 0.531001 24 0.812129 24 1.10526C24 1.3984 23.8815 1.67953 23.6705 1.8868C23.4595 2.09408 23.1734 2.21053 22.875 2.21053H1.125C0.826631 2.21053 0.540483 2.09408 0.329505 1.8868C0.118526 1.67953 0 1.3984 0 1.10526C0 0.812129 0.118526 0.531001 0.329505 0.323724C0.540483 0.116447 0.826631 0 1.125 0ZM4.5 7C4.5 6.70687 4.61853 6.42574 4.8295 6.21846C5.04048 6.01118 5.32663 5.89474 5.625 5.89474H18.375C18.6734 5.89474 18.9595 6.01118 19.1705 6.21846C19.3815 6.42574 19.5 6.70687 19.5 7C19.5 7.29313 19.3815 7.57426 19.1705 7.78154C18.9595 7.98882 18.6734 8.10526 18.375 8.10526H5.625C5.32663 8.10526 5.04048 7.98882 4.8295 7.78154C4.61853 7.57426 4.5 7.29313 4.5 7ZM9 12.8947C9 12.6016 9.11853 12.3205 9.3295 12.1132C9.54048 11.9059 9.82663 11.7895 10.125 11.7895H13.875C14.1734 11.7895 14.4595 11.9059 14.6705 12.1132C14.8815 12.3205 15 12.6016 15 12.8947C15 13.1879 14.8815 13.469 14.6705 13.6763C14.4595 13.8836 14.1734 14 13.875 14H10.125C9.82663 14 9.54048 13.8836 9.3295 13.6763C9.11853 13.469 9 13.1879 9 12.8947Z" fill="#F4F6F8"/>
</svg>
